<?xml version="1.0" encoding="utf-8"?>
<!-- Generator: Adobe Illustrator 27.4.0, SVG Export Plug-In . SVG Version: 6.00 Build 0)  -->
<svg version="1.1" id="Layer_1" xmlns="http://www.w3.org/2000/svg" xmlns:xlink="http://www.w3.org/1999/xlink" x="0px" y="0px"
	 viewBox="0 0 983 938" style="enable-background:new 0 0 983 938;" xml:space="preserve">
<style type="text/css">
	.st0{fill-rule:evenodd;clip-rule:evenodd;fill:#212121;}
</style>
<path class="st0" d="M856.8,838.4c181.9-206.2,165.1-523.5-36.6-709.4s-512.1-168.8-694,37.4C7,302.1-31.6,494.4,26.9,666.4
	c36.6,92.9,104.5,172,189.2,220.1c186,105.8,434.8,44.9,537.2-148.5c87.8-164.5,35.5-383.5-128.6-472.2
	C488.9,192.1,308.1,238,238,380.1c-56.4,113.2-18.8,263.9,94.1,318.4c85.7,41.7,198.6,11.8,237.2-78c26.1-62,4.2-143.2-56.4-165.6
	c-16.7-6.4-40.8-6.4-57.5,0c-41.8,17.1-58.5,63-56.4,92.9c15.7,63,32.4,44.9,36.6,70.5c-46,6.4-87.8-24.6-104.5-56.6
	s-21.9-65.2-13.6-99.4c12.5-54.5,52.3-94,96.2-112.2c43.9-18.2,93-19.2,136.9-2.1C678,396.1,720.9,548.9,670.7,665.4
	C604.9,818.1,423,868.3,284,800C110.5,715.6,55.1,495.5,138.7,327.8c100.4-202,349.1-265,538.3-163.5
	C898.6,284,967.5,573.5,851.5,791.4c-16.7,31-36.6,59.8-58.5,85.5c-18.8,22.4-38.7,41.7-60.6,59.8c46-26.7,87.8-60.9,123.3-100.4
	L856.8,838.4z"/>
</svg>
