<svg width="56" height="54" viewBox="0 0 56 54" fill="none" xmlns="http://www.w3.org/2000/svg">
<path fill-rule="evenodd" clip-rule="evenodd" d="M48.8081 47.831C59.1682 36.0681 58.2156 17.9667 46.7242 7.3618C35.2329 -3.24309 17.5493 -2.26793 7.18923 9.49497C0.401598 17.2353 -1.80141 28.2059 1.53287 38.0185C3.61679 43.3209 7.48693 47.831 12.3097 50.5737C22.908 56.6075 37.0786 53.1335 42.9136 42.102C47.915 32.716 44.938 20.2218 35.5901 15.1631C27.8498 10.9577 17.5493 13.5785 13.5601 21.6845C10.3449 28.1449 12.4883 36.7386 18.9187 39.8469C23.8011 42.2238 30.2315 40.5173 32.4345 35.3977C33.923 31.8628 32.6726 27.2307 29.2193 25.9508C28.2666 25.5851 26.8972 25.5851 25.9445 25.9508C23.5629 26.926 22.6103 29.5467 22.7293 31.2533C23.6224 34.8492 24.5751 33.8131 24.8133 35.2758C22.1935 35.6415 19.8118 33.874 18.8592 32.0456C17.9065 30.2172 17.6088 28.3278 18.0852 26.3775C18.7997 23.2691 21.0622 21.0141 23.5629 19.978C26.0636 18.9418 28.862 18.8809 31.3627 19.8561C38.6267 22.5987 41.0679 31.3142 38.2099 37.9575C34.4588 46.673 24.0988 49.5376 16.1799 45.6369C6.29612 40.8221 3.14046 28.2668 7.90371 18.6981C13.6196 7.17896 27.7903 3.58304 38.5672 9.37307C51.1898 16.1992 55.1194 32.716 48.5104 45.1493C47.5578 46.9168 46.4265 48.5624 45.1762 50.0251C44.1044 51.305 42.9732 52.4021 41.7228 53.4382C44.3426 51.9145 46.7242 49.9642 48.7486 47.7091L48.8081 47.831Z" fill="#11CDF7"/>
</svg>
